<svg id="mermaidChart0" width="100%" xmlns="http://www.w3.org/2000/svg" height="100%" viewBox="0 0 681.296875 414"><style>
  /* Flowchart variables */
/* Sequence Diagram variables */
/* Gantt chart variables */
.mermaid .label {
  font-family: 'trebuchet ms', verdana, arial;
  color: #333;
}
.node rect,
.node circle,
.node ellipse,
.node polygon {
  fill: #cde498;
  stroke: #13540c;
  stroke-width: 1px;
}
.arrowheadPath {
  fill: green;
}
.edgePath .path {
  stroke: green;
  stroke-width: 1.5px;
}
.edgeLabel {
  background-color: #e8e8e8;
}
.cluster rect {
  fill: #cdffb2 !important;
  rx: 4 !important;
  stroke: #6eaa49 !important;
  stroke-width: 1px !important;
}
.cluster text {
  fill: #333;
}
.actor {
  stroke: #13540c;
  fill: #cde498;
}
text.actor {
  fill: black;
  stroke: none;
}
.actor-line {
  stroke: grey;
}
.messageLine0 {
  stroke-width: 1.5;
  stroke-dasharray: "2 2";
  marker-end: "url(#arrowhead)";
  stroke: #333;
}
.messageLine1 {
  stroke-width: 1.5;
  stroke-dasharray: "2 2";
  stroke: #333;
}
#arrowhead {
  fill: #333;
}
#crosshead path {
  fill: #333 !important;
  stroke: #333 !important;
}
.messageText {
  fill: #333;
  stroke: none;
}
.labelBox {
  stroke: #326932;
  fill: #cde498;
}
.labelText {
  fill: black;
  stroke: none;
}
.loopText {
  fill: black;
  stroke: none;
}
.loopLine {
  stroke-width: 2;
  stroke-dasharray: "2 2";
  marker-end: "url(#arrowhead)";
  stroke: #326932;
}
.note {
  stroke: #6eaa49;
  fill: #fff5ad;
}
.noteText {
  fill: black;
  stroke: none;
  font-family: 'trebuchet ms', verdana, arial;
  font-size: 14px;
}
/** Section styling */
.section {
  stroke: none;
  opacity: 0.2;
}
.section0 {
  fill: #6eaa49;
}
.section2 {
  fill: #6eaa49;
}
.section1,
.section3 {
  fill: white;
  opacity: 0.2;
}
.sectionTitle0 {
  fill: #333;
}
.sectionTitle1 {
  fill: #333;
}
.sectionTitle2 {
  fill: #333;
}
.sectionTitle3 {
  fill: #333;
}
.sectionTitle {
  text-anchor: start;
  font-size: 11px;
  text-height: 14px;
}
/* Grid and axis */
.grid .tick {
  stroke: lightgrey;
  opacity: 0.3;
  shape-rendering: crispEdges;
}
.grid path {
  stroke-width: 0;
}
/* Today line */
.today {
  fill: none;
  stroke: red;
  stroke-width: 2px;
}
/* Task styling */
/* Default task */
.task {
  stroke-width: 2;
}
.taskText {
  text-anchor: middle;
  font-size: 11px;
}
.taskTextOutsideRight {
  fill: black;
  text-anchor: start;
  font-size: 11px;
}
.taskTextOutsideLeft {
  fill: black;
  text-anchor: end;
  font-size: 11px;
}
/* Specific task settings for the sections*/
.taskText0,
.taskText1,
.taskText2,
.taskText3 {
  fill: white;
}
.task0,
.task1,
.task2,
.task3 {
  fill: #487e3a;
  stroke: #13540c;
}
.taskTextOutside0,
.taskTextOutside2 {
  fill: black;
}
.taskTextOutside1,
.taskTextOutside3 {
  fill: black;
}
/* Active task */
.active0,
.active1,
.active2,
.active3 {
  fill: #cde498;
  stroke: #13540c;
}
.activeText0,
.activeText1,
.activeText2,
.activeText3 {
  fill: black !important;
}
/* Completed task */
.done0,
.done1,
.done2,
.done3 {
  stroke: grey;
  fill: lightgrey;
  stroke-width: 2;
}
.doneText0,
.doneText1,
.doneText2,
.doneText3 {
  fill: black !important;
}
/* Tasks on the critical line */
.crit0,
.crit1,
.crit2,
.crit3 {
  stroke: #ff8888;
  fill: red;
  stroke-width: 2;
}
.activeCrit0,
.activeCrit1,
.activeCrit2,
.activeCrit3 {
  stroke: #ff8888;
  fill: #cde498;
  stroke-width: 2;
}
.doneCrit0,
.doneCrit1,
.doneCrit2,
.doneCrit3 {
  stroke: #ff8888;
  fill: lightgrey;
  stroke-width: 2;
  cursor: pointer;
  shape-rendering: crispEdges;
}
.doneCritText0,
.doneCritText1,
.doneCritText2,
.doneCritText3 {
  fill: black !important;
}
.activeCritText0,
.activeCritText1,
.activeCritText2,
.activeCritText3 {
  fill: black !important;
}
.titleText {
  text-anchor: middle;
  font-size: 18px;
  fill: black;
}
g.classGroup text {
  fill: #13540c;
  stroke: none;
  font-family: 'trebuchet ms', verdana, arial;
  font-size: 10px;
}
g.classGroup rect {
  fill: #cde498;
  stroke: #13540c;
}
g.classGroup line {
  stroke: #13540c;
  stroke-width: 1;
}
svg .classLabel .box {
  stroke: none;
  stroke-width: 0;
  fill: #cde498;
  opacity: 0.5;
}
svg .classLabel .label {
  fill: #13540c;
  font-size: 10px;
}
.relation {
  stroke: #13540c;
  stroke-width: 1;
  fill: none;
}
.composition {
  fill: #13540c;
  stroke: #13540c;
  stroke-width: 1;
}
#compositionStart {
  fill: #13540c;
  stroke: #13540c;
  stroke-width: 1;
}
#compositionEnd {
  fill: #13540c;
  stroke: #13540c;
  stroke-width: 1;
}
.aggregation {
  fill: #cde498;
  stroke: #13540c;
  stroke-width: 1;
}
#aggregationStart {
  fill: #cde498;
  stroke: #13540c;
  stroke-width: 1;
}
#aggregationEnd {
  fill: #cde498;
  stroke: #13540c;
  stroke-width: 1;
}
#dependencyStart {
  fill: #13540c;
  stroke: #13540c;
  stroke-width: 1;
}
#dependencyEnd {
  fill: #13540c;
  stroke: #13540c;
  stroke-width: 1;
}
#extensionStart {
  fill: #13540c;
  stroke: #13540c;
  stroke-width: 1;
}
#extensionEnd {
  fill: #13540c;
  stroke: #13540c;
  stroke-width: 1;
}
.node text {
  font-family: 'trebuchet ms', verdana, arial;
  font-size: 14px;
}
div.mermaidTooltip {
  position: absolute;
  text-align: center;
  max-width: 200px;
  padding: 2px;
  font-family: 'trebuchet ms', verdana, arial;
  font-size: 12px;
  background: #cdffb2;
  border: 1px solid #6eaa49;
  border-radius: 2px;
  pointer-events: none;
  z-index: 100;
}

svg {
  color: rgb(0, 0, 0);
  font: normal normal 400 normal 16px / normal "Times New Roman";
}
  </style><g></g><defs><marker id="extensionStart" class="extension" refX="0" refY="7" markerWidth="190" markerHeight="240" orient="auto"><path d="M 1,7 L18,13 V 1 Z"></path></marker></defs><defs><marker id="extensionEnd" refX="19" refY="7" markerWidth="20" markerHeight="28" orient="auto"><path d="M 1,1 V 13 L18,7 Z"></path></marker></defs><defs><marker id="compositionStart" class="extension" refX="0" refY="7" markerWidth="190" markerHeight="240" orient="auto"><path d="M 18,7 L9,13 L1,7 L9,1 Z"></path></marker></defs><defs><marker id="compositionEnd" refX="19" refY="7" markerWidth="20" markerHeight="28" orient="auto"><path d="M 18,7 L9,13 L1,7 L9,1 Z"></path></marker></defs><defs><marker id="aggregationStart" class="extension" refX="0" refY="7" markerWidth="190" markerHeight="240" orient="auto"><path d="M 18,7 L9,13 L1,7 L9,1 Z"></path></marker></defs><defs><marker id="aggregationEnd" refX="19" refY="7" markerWidth="20" markerHeight="28" orient="auto"><path d="M 18,7 L9,13 L1,7 L9,1 Z"></path></marker></defs><defs><marker id="dependencyStart" class="extension" refX="0" refY="7" markerWidth="190" markerHeight="240" orient="auto"><path d="M 5,7 L9,13 L1,7 L9,1 Z"></path></marker></defs><defs><marker id="dependencyEnd" refX="19" refY="7" markerWidth="20" markerHeight="28" orient="auto"><path d="M 18,7 L9,13 L14,7 L9,1 Z"></path></marker></defs><g id="classId0" class="classGroup" transform="translate(21.84375,0 )"><rect x="0" y="0" width="78.546875" height="86"></rect><text x="5" y="15">Class01</text><line x1="0" y1="27" y2="27" x2="78.546875"></line><text x="5" y="37" fill="white" class="classText"><tspan x="5">int chimp</tspan><tspan x="5" dy="10">int gorilla</tspan></text><line x1="0" y1="59" y2="59" x2="78.546875"></line><text x="5" y="74" fill="white" class="classText"><tspan x="5">size()</tspan></text></g><g id="classId1" class="classGroup" transform="translate(0,153.5 )"><rect x="0" y="0" width="122.234375" height="41"></rect><text x="5" y="15">AveryLongClass</text><line x1="0" y1="27" y2="27" x2="122.234375"></line><text x="5" y="37" fill="white" class="classText"></text><line x1="0" y1="32" y2="32" x2="122.234375"></line><text x="5" y="47" fill="white" class="classText"></text></g><g id="classId2" class="classGroup" transform="translate(172.234375,22.5 )"><rect x="0" y="0" width="65.671875" height="41"></rect><text x="5" y="15">Class03</text><line x1="0" y1="27" y2="27" x2="65.671875"></line><text x="5" y="37" fill="white" class="classText"></text><line x1="0" y1="32" y2="32" x2="65.671875"></line><text x="5" y="47" fill="white" class="classText"></text></g><g id="classId3" class="classGroup" transform="translate(172.234375,153.5 )"><rect x="0" y="0" width="65.671875" height="41"></rect><text x="5" y="15">Class04</text><line x1="0" y1="27" y2="27" x2="65.671875"></line><text x="5" y="37" fill="white" class="classText"></text><line x1="0" y1="32" y2="32" x2="65.671875"></line><text x="5" y="47" fill="white" class="classText"></text></g><g id="classId4" class="classGroup" transform="translate(287.90625,22.5 )"><rect x="0" y="0" width="65.671875" height="41"></rect><text x="5" y="15">Class05</text><line x1="0" y1="27" y2="27" x2="65.671875"></line><text x="5" y="37" fill="white" class="classText"></text><line x1="0" y1="32" y2="32" x2="65.671875"></line><text x="5" y="47" fill="white" class="classText"></text></g><g id="classId5" class="classGroup" transform="translate(287.90625,153.5 )"><rect x="0" y="0" width="65.671875" height="41"></rect><text x="5" y="15">Class06</text><line x1="0" y1="27" y2="27" x2="65.671875"></line><text x="5" y="37" fill="white" class="classText"></text><line x1="0" y1="32" y2="32" x2="65.671875"></line><text x="5" y="47" fill="white" class="classText"></text></g><g id="classId6" class="classGroup" transform="translate(507.25,136 )"><rect x="0" y="0" width="154.046875" height="76"></rect><text x="5" y="15">Class07</text><line x1="0" y1="27" y2="27" x2="154.046875"></line><text x="5" y="37" fill="white" class="classText"><tspan x="5">Object[] elementData</tspan></text><line x1="0" y1="49" y2="49" x2="154.046875"></line><text x="5" y="64" fill="white" class="classText"><tspan x="5">equals()</tspan></text></g><g id="classId7" class="classGroup" transform="translate(551.4375,262 )"><rect x="0" y="0" width="65.671875" height="41"></rect><text x="5" y="15">Class08</text><line x1="0" y1="27" y2="27" x2="65.671875"></line><text x="5" y="37" fill="white" class="classText"></text><line x1="0" y1="32" y2="32" x2="65.671875"></line><text x="5" y="47" fill="white" class="classText"></text></g><g id="classId8" class="classGroup" transform="translate(407.578125,22.5 )"><rect x="0" y="0" width="65.671875" height="41"></rect><text x="5" y="15">Class09</text><line x1="0" y1="27" y2="27" x2="65.671875"></line><text x="5" y="37" fill="white" class="classText"></text><line x1="0" y1="32" y2="32" x2="65.671875"></line><text x="5" y="47" fill="white" class="classText"></text></g><g id="classId9" class="classGroup" transform="translate(493.5078125,353 )"><rect x="0" y="0" width="33.671875" height="41"></rect><text x="5" y="15">C2</text><line x1="0" y1="27" y2="27" x2="33.671875"></line><text x="5" y="37" fill="white" class="classText"></text><line x1="0" y1="32" y2="32" x2="33.671875"></line><text x="5" y="47" fill="white" class="classText"></text></g><g id="classId10" class="classGroup" transform="translate(423.578125,153.5 )"><rect x="0" y="0" width="33.671875" height="41"></rect><text x="5" y="15">C3</text><line x1="0" y1="27" y2="27" x2="33.671875"></line><text x="5" y="37" fill="white" class="classText"></text><line x1="0" y1="32" y2="32" x2="33.671875"></line><text x="5" y="47" fill="white" class="classText"></text></g><path d="M61.1171875,86L61.11718749999999,90.16666666666666C61.1171875,94.33333333333333,61.1171875,102.66666666666666,61.11718749999999,113.91666666666666C61.1171875,125.16666666666666,61.1171875,139.33333333333331,61.11718749999999,146.41666666666666L61.1171875,153.5" id="edge0" class="relation" marker-start="url(#extensionStart)"></path><g class="classLabel"><rect class="box" x="43.046875" y="115.75" width="36.671875" height="22"></rect><text class="label" x="61.1171875" y="132.25" fill="red" text-anchor="middle">Cool</text></g><path d="M205.0703125,63.5L205.07031249999997,71.41666666666666C205.0703125,79.33333333333333,205.0703125,95.16666666666666,205.07031249999997,110.16666666666666C205.0703125,125.16666666666666,205.0703125,139.33333333333331,205.07031249999997,146.41666666666666L205.0703125,153.5" id="edge1" class="relation" marker-start="url(#compositionStart)"></path><path d="M320.7421875,63.5L320.7421875,71.41666666666666C320.7421875,79.33333333333333,320.7421875,95.16666666666666,320.7421875,110.16666666666666C320.7421875,125.16666666666666,320.7421875,139.33333333333331,320.7421875,146.41666666666666L320.7421875,153.5" id="edge2" class="relation" marker-start="url(#aggregationStart)"></path><path d="M584.2734375,212L584.2734375,216.16666666666663C584.2734375,220.33333333333331,584.2734375,228.66666666666666,584.2734375,236.99999999999997C584.2734375,245.33333333333331,584.2734375,253.66666666666666,584.2734375,257.8333333333333L584.2734375,262" id="edge3" class="relation"></path><path d="M424.7870519301471,63.5L418.75223077512254,71.41666666666666C412.717409620098,79.33333333333333,400.647767310049,95.16666666666666,394.6129461550245,113.58333333333333C388.578125,132,388.578125,153,388.57812499999994,174C388.578125,195,388.578125,216,388.57812499999994,234.08333333333331C388.578125,252.16666666666666,388.578125,267.3333333333333,388.57812499999994,282.5C388.578125,297.66666666666663,388.578125,312.8333333333333,406.06640624999994,326.95148958467C423.5546875,341.06964583600666,458.53125,354.1392916720133,476.01953124999994,360.6741145900167L493.5078125,367.20893750802" id="edge4" class="relation" marker-end="url(#dependencyEnd)"></path><g class="classLabel"><rect class="box" x="345.203125" y="243.25" width="86.71875" height="22"></rect><text class="label" x="388.578125" y="259.75" fill="red" text-anchor="middle">Where am i?</text></g><path d="M440.4140625,63.5L440.4140625,71.41666666666666C440.4140625,79.33333333333333,440.4140625,95.16666666666666,440.4140625,110.16666666666666C440.4140625,125.16666666666666,440.4140625,139.33333333333331,440.4140625,146.41666666666666L440.4140625,153.5" id="edge5" class="relation" marker-end="url(#compositionEnd)"></path><path d="M473.25,58.52101661779081L491.75390625,67.26751384815901C510.2578125,76.0140110785272,547.265625,93.5070055392636,565.76953125,106.42016943629847C584.2734375,119.33333333333333,584.2734375,127.66666666666666,584.2734375,131.83333333333331L584.2734375,136" id="edge6" class="relation" marker-end="url(#extensionEnd)"></path><path d="M584.2734375,303L584.2734375,307.1666666666667C584.2734375,311.3333333333333,584.2734375,319.66666666666663,574.7578125,329.6897213709535C565.2421875,339.7127760752404,546.2109375,351.4255521504808,536.6953125,357.28194018810103L527.1796875,363.13832822572124" id="edge7" class="relation" marker-start="url(#dependencyStart)" marker-end="url(#dependencyEnd)"></path><g class="classLabel"><rect class="box" x="520.109375" y="329.0625" width="71.765625" height="22"></rect><text class="label" x="555.7265625" y="345.5691641128606" fill="red" text-anchor="middle">Cool label</text></g></svg>