<svg id="mermaidChart0" width="100%" xmlns="http://www.w3.org/2000/svg" height="100%" viewBox="0 0 680.390625 415.75"><style>
  /* Flowchart variables */
/* Sequence Diagram variables */
/* Gantt chart variables */
.mermaid .label {
  font-family: 'trebuchet ms', verdana, arial;
  color: #333;
}
.node rect,
.node circle,
.node ellipse,
.node polygon {
  fill: #cde498;
  stroke: #13540c;
  stroke-width: 1px;
}
.arrowheadPath {
  fill: green;
}
.edgePath .path {
  stroke: green;
  stroke-width: 1.5px;
}
.edgeLabel {
  background-color: #e8e8e8;
}
.cluster rect {
  fill: #cdffb2 !important;
  rx: 4 !important;
  stroke: #6eaa49 !important;
  stroke-width: 1px !important;
}
.cluster text {
  fill: #333;
}
.actor {
  stroke: #13540c;
  fill: #cde498;
}
text.actor {
  fill: black;
  stroke: none;
}
.actor-line {
  stroke: grey;
}
.messageLine0 {
  stroke-width: 1.5;
  stroke-dasharray: "2 2";
  marker-end: "url(#arrowhead)";
  stroke: #333;
}
.messageLine1 {
  stroke-width: 1.5;
  stroke-dasharray: "2 2";
  stroke: #333;
}
#arrowhead {
  fill: #333;
}
#crosshead path {
  fill: #333 !important;
  stroke: #333 !important;
}
.messageText {
  fill: #333;
  stroke: none;
}
.labelBox {
  stroke: #326932;
  fill: #cde498;
}
.labelText {
  fill: black;
  stroke: none;
}
.loopText {
  fill: black;
  stroke: none;
}
.loopLine {
  stroke-width: 2;
  stroke-dasharray: "2 2";
  marker-end: "url(#arrowhead)";
  stroke: #326932;
}
.note {
  stroke: #6eaa49;
  fill: #fff5ad;
}
.noteText {
  fill: black;
  stroke: none;
  font-family: 'trebuchet ms', verdana, arial;
  font-size: 14px;
}
/** Section styling */
.section {
  stroke: none;
  opacity: 0.2;
}
.section0 {
  fill: #6eaa49;
}
.section2 {
  fill: #6eaa49;
}
.section1,
.section3 {
  fill: white;
  opacity: 0.2;
}
.sectionTitle0 {
  fill: #333;
}
.sectionTitle1 {
  fill: #333;
}
.sectionTitle2 {
  fill: #333;
}
.sectionTitle3 {
  fill: #333;
}
.sectionTitle {
  text-anchor: start;
  font-size: 11px;
  text-height: 14px;
}
/* Grid and axis */
.grid .tick {
  stroke: lightgrey;
  opacity: 0.3;
  shape-rendering: crispEdges;
}
.grid path {
  stroke-width: 0;
}
/* Today line */
.today {
  fill: none;
  stroke: red;
  stroke-width: 2px;
}
/* Task styling */
/* Default task */
.task {
  stroke-width: 2;
}
.taskText {
  text-anchor: middle;
  font-size: 11px;
}
.taskTextOutsideRight {
  fill: black;
  text-anchor: start;
  font-size: 11px;
}
.taskTextOutsideLeft {
  fill: black;
  text-anchor: end;
  font-size: 11px;
}
/* Specific task settings for the sections*/
.taskText0,
.taskText1,
.taskText2,
.taskText3 {
  fill: white;
}
.task0,
.task1,
.task2,
.task3 {
  fill: #487e3a;
  stroke: #13540c;
}
.taskTextOutside0,
.taskTextOutside2 {
  fill: black;
}
.taskTextOutside1,
.taskTextOutside3 {
  fill: black;
}
/* Active task */
.active0,
.active1,
.active2,
.active3 {
  fill: #cde498;
  stroke: #13540c;
}
.activeText0,
.activeText1,
.activeText2,
.activeText3 {
  fill: black !important;
}
/* Completed task */
.done0,
.done1,
.done2,
.done3 {
  stroke: grey;
  fill: lightgrey;
  stroke-width: 2;
}
.doneText0,
.doneText1,
.doneText2,
.doneText3 {
  fill: black !important;
}
/* Tasks on the critical line */
.crit0,
.crit1,
.crit2,
.crit3 {
  stroke: #ff8888;
  fill: red;
  stroke-width: 2;
}
.activeCrit0,
.activeCrit1,
.activeCrit2,
.activeCrit3 {
  stroke: #ff8888;
  fill: #cde498;
  stroke-width: 2;
}
.doneCrit0,
.doneCrit1,
.doneCrit2,
.doneCrit3 {
  stroke: #ff8888;
  fill: lightgrey;
  stroke-width: 2;
  cursor: pointer;
  shape-rendering: crispEdges;
}
.doneCritText0,
.doneCritText1,
.doneCritText2,
.doneCritText3 {
  fill: black !important;
}
.activeCritText0,
.activeCritText1,
.activeCritText2,
.activeCritText3 {
  fill: black !important;
}
.titleText {
  text-anchor: middle;
  font-size: 18px;
  fill: black;
}
g.classGroup text {
  fill: #13540c;
  stroke: none;
  font-family: 'trebuchet ms', verdana, arial;
  font-size: 10px;
}
g.classGroup rect {
  fill: #cde498;
  stroke: #13540c;
}
g.classGroup line {
  stroke: #13540c;
  stroke-width: 1;
}
svg .classLabel .box {
  stroke: none;
  stroke-width: 0;
  fill: #cde498;
  opacity: 0.5;
}
svg .classLabel .label {
  fill: #13540c;
  font-size: 10px;
}
.relation {
  stroke: #13540c;
  stroke-width: 1;
  fill: none;
}
.composition {
  fill: #13540c;
  stroke: #13540c;
  stroke-width: 1;
}
#compositionStart {
  fill: #13540c;
  stroke: #13540c;
  stroke-width: 1;
}
#compositionEnd {
  fill: #13540c;
  stroke: #13540c;
  stroke-width: 1;
}
.aggregation {
  fill: #cde498;
  stroke: #13540c;
  stroke-width: 1;
}
#aggregationStart {
  fill: #cde498;
  stroke: #13540c;
  stroke-width: 1;
}
#aggregationEnd {
  fill: #cde498;
  stroke: #13540c;
  stroke-width: 1;
}
#dependencyStart {
  fill: #13540c;
  stroke: #13540c;
  stroke-width: 1;
}
#dependencyEnd {
  fill: #13540c;
  stroke: #13540c;
  stroke-width: 1;
}
#extensionStart {
  fill: #13540c;
  stroke: #13540c;
  stroke-width: 1;
}
#extensionEnd {
  fill: #13540c;
  stroke: #13540c;
  stroke-width: 1;
}
.node text {
  font-family: 'trebuchet ms', verdana, arial;
  font-size: 14px;
}
div.mermaidTooltip {
  position: absolute;
  text-align: center;
  max-width: 200px;
  padding: 2px;
  font-family: 'trebuchet ms', verdana, arial;
  font-size: 12px;
  background: #cdffb2;
  border: 1px solid #6eaa49;
  border-radius: 2px;
  pointer-events: none;
  z-index: 100;
}

svg {
  color: rgb(0, 0, 0);
  font: normal normal 400 normal 16px / normal "Times New Roman";
}
  </style><g></g><defs><marker id="extensionStart" class="extension" refX="0" refY="7" markerWidth="190" markerHeight="240" orient="auto"><path d="M 1,7 L18,13 V 1 Z"></path></marker></defs><defs><marker id="extensionEnd" refX="19" refY="7" markerWidth="20" markerHeight="28" orient="auto"><path d="M 1,1 V 13 L18,7 Z"></path></marker></defs><defs><marker id="compositionStart" class="extension" refX="0" refY="7" markerWidth="190" markerHeight="240" orient="auto"><path d="M 18,7 L9,13 L1,7 L9,1 Z"></path></marker></defs><defs><marker id="compositionEnd" refX="19" refY="7" markerWidth="20" markerHeight="28" orient="auto"><path d="M 18,7 L9,13 L1,7 L9,1 Z"></path></marker></defs><defs><marker id="aggregationStart" class="extension" refX="0" refY="7" markerWidth="190" markerHeight="240" orient="auto"><path d="M 18,7 L9,13 L1,7 L9,1 Z"></path></marker></defs><defs><marker id="aggregationEnd" refX="19" refY="7" markerWidth="20" markerHeight="28" orient="auto"><path d="M 18,7 L9,13 L1,7 L9,1 Z"></path></marker></defs><defs><marker id="dependencyStart" class="extension" refX="0" refY="7" markerWidth="190" markerHeight="240" orient="auto"><path d="M 5,7 L9,13 L1,7 L9,1 Z"></path></marker></defs><defs><marker id="dependencyEnd" refX="19" refY="7" markerWidth="20" markerHeight="28" orient="auto"><path d="M 18,7 L9,13 L14,7 L9,1 Z"></path></marker></defs><g id="classId0" class="classGroup" transform="translate(22.2890625,0 )"><rect x="0" y="0" width="77.65625" height="86.875"></rect><text x="5" y="15">Class01</text><line x1="0" y1="27" y2="27" x2="77.65625"></line><text x="5" y="37" fill="white" class="classText"><tspan x="5">int chimp</tspan><tspan x="5" dy="10">int gorilla</tspan></text><line x1="0" y1="59.453125" y2="59.453125" x2="77.65625"></line><text x="5" y="74.453125" fill="white" class="classText"><tspan x="5">size()</tspan></text></g><g id="classId1" class="classGroup" transform="translate(0,154.5859375 )"><rect x="0" y="0" width="122.234375" height="41.453125"></rect><text x="5" y="15">AveryLongClass</text><line x1="0" y1="27.453125" y2="27.453125" x2="122.234375"></line><text x="5" y="37.453125" fill="white" class="classText"></text><line x1="0" y1="32.453125" y2="32.453125" x2="122.234375"></line><text x="5" y="47.453125" fill="white" class="classText"></text></g><g id="classId2" class="classGroup" transform="translate(172.234375,22.9375 )"><rect x="0" y="0" width="65.671875" height="41"></rect><text x="5" y="15">Class03</text><line x1="0" y1="27" y2="27" x2="65.671875"></line><text x="5" y="37" fill="white" class="classText"></text><line x1="0" y1="32" y2="32" x2="65.671875"></line><text x="5" y="47" fill="white" class="classText"></text></g><g id="classId3" class="classGroup" transform="translate(172.234375,154.8125 )"><rect x="0" y="0" width="65.671875" height="41"></rect><text x="5" y="15">Class04</text><line x1="0" y1="27" y2="27" x2="65.671875"></line><text x="5" y="37" fill="white" class="classText"></text><line x1="0" y1="32" y2="32" x2="65.671875"></line><text x="5" y="47" fill="white" class="classText"></text></g><g id="classId4" class="classGroup" transform="translate(287.90625,22.9375 )"><rect x="0" y="0" width="65.671875" height="41"></rect><text x="5" y="15">Class05</text><line x1="0" y1="27" y2="27" x2="65.671875"></line><text x="5" y="37" fill="white" class="classText"></text><line x1="0" y1="32" y2="32" x2="65.671875"></line><text x="5" y="47" fill="white" class="classText"></text></g><g id="classId5" class="classGroup" transform="translate(287.90625,154.8125 )"><rect x="0" y="0" width="65.671875" height="41"></rect><text x="5" y="15">Class06</text><line x1="0" y1="27" y2="27" x2="65.671875"></line><text x="5" y="37" fill="white" class="classText"></text><line x1="0" y1="32" y2="32" x2="65.671875"></line><text x="5" y="47" fill="white" class="classText"></text></g><g id="classId6" class="classGroup" transform="translate(507.25,136.875 )"><rect x="0" y="0" width="153.140625" height="76.875"></rect><text x="5" y="15">Class07</text><line x1="0" y1="27" y2="27" x2="153.140625"></line><text x="5" y="37" fill="white" class="classText"><tspan x="5">Object[] elementData</tspan></text><line x1="0" y1="49.453125" y2="49.453125" x2="153.140625"></line><text x="5" y="64.453125" fill="white" class="classText"><tspan x="5">equals()</tspan></text></g><g id="classId7" class="classGroup" transform="translate(550.984375,263.75 )"><rect x="0" y="0" width="65.671875" height="41"></rect><text x="5" y="15">Class08</text><line x1="0" y1="27" y2="27" x2="65.671875"></line><text x="5" y="37" fill="white" class="classText"></text><line x1="0" y1="32" y2="32" x2="65.671875"></line><text x="5" y="47" fill="white" class="classText"></text></g><g id="classId8" class="classGroup" transform="translate(407.578125,22.9375 )"><rect x="0" y="0" width="65.671875" height="41"></rect><text x="5" y="15">Class09</text><line x1="0" y1="27" y2="27" x2="65.671875"></line><text x="5" y="37" fill="white" class="classText"></text><line x1="0" y1="32" y2="32" x2="65.671875"></line><text x="5" y="47" fill="white" class="classText"></text></g><g id="classId9" class="classGroup" transform="translate(493.28125,354.75 )"><rect x="0" y="0" width="33.671875" height="41"></rect><text x="5" y="15">C2</text><line x1="0" y1="27" y2="27" x2="33.671875"></line><text x="5" y="37" fill="white" class="classText"></text><line x1="0" y1="32" y2="32" x2="33.671875"></line><text x="5" y="47" fill="white" class="classText"></text></g><g id="classId10" class="classGroup" transform="translate(423.578125,154.8125 )"><rect x="0" y="0" width="33.671875" height="41"></rect><text x="5" y="15">C3</text><line x1="0" y1="27" y2="27" x2="33.671875"></line><text x="5" y="37" fill="white" class="classText"></text><line x1="0" y1="32" y2="32" x2="33.671875"></line><text x="5" y="47" fill="white" class="classText"></text></g><path d="M61.1171875,86.875L61.11718749999999,91.04166666666666C61.1171875,95.20833333333333,61.1171875,103.54166666666666,61.11718749999999,114.82682291666666C61.1171875,126.11197916666666,61.1171875,140.34895833333331,61.11718749999999,147.46744791666666L61.1171875,154.5859375" id="edge0" class="relation" marker-start="url(#extensionStart)"></path><g class="classLabel"><rect class="box" x="43.046875" y="116.71875" width="36.109375" height="22"></rect><text class="label" x="61.1171875" y="133.23046875" fill="red" text-anchor="middle">Cool</text></g><path d="M205.0703125,63.9375L205.07031249999997,71.92708333333333C205.0703125,79.91666666666666,205.0703125,95.89583333333333,205.07031249999997,111.04166666666666C205.0703125,126.1875,205.0703125,140.5,205.07031249999997,147.65625L205.0703125,154.8125" id="edge1" class="relation" marker-start="url(#compositionStart)"></path><path d="M320.7421875,63.9375L320.7421875,71.92708333333333C320.7421875,79.91666666666666,320.7421875,95.89583333333333,320.7421875,111.04166666666666C320.7421875,126.1875,320.7421875,140.5,320.7421875,147.65625L320.7421875,154.8125" id="edge2" class="relation" marker-start="url(#aggregationStart)"></path><path d="M583.8203125,213.75L583.8203124999999,217.91666666666666C583.8203125,222.08333333333331,583.8203125,230.41666666666666,583.8203124999999,238.75C583.8203125,247.08333333333331,583.8203125,255.41666666666663,583.8203124999999,259.5833333333333L583.8203125,263.75" id="edge3" class="relation"></path><path d="M424.8869506278539,63.9375L418.83547968987824,71.92708333333333C412.78400875190255,79.91666666666666,400.6810668759513,95.89583333333333,394.6295959379756,114.45833333333333C388.578125,133.02083333333331,388.578125,154.16666666666666,388.57812499999994,175.3125C388.578125,196.45833333333331,388.578125,217.60416666666666,388.57812499999994,235.76041666666666C388.578125,253.91666666666666,388.578125,269.0833333333333,388.57812499999994,284.25C388.578125,299.41666666666663,388.578125,314.5833333333333,406.02864583333326,328.69953504317454C423.47916666666663,342.81573675301576,458.38020833333326,355.88147350603157,475.83072916666663,362.4143418825395L493.28125,368.9472102590474" id="edge4" class="relation" marker-end="url(#dependencyEnd)"></path><g class="classLabel"><rect class="box" x="345.203125" y="245" width="86.71875" height="22"></rect><text class="label" x="388.578125" y="261.5" fill="red" text-anchor="middle">Where am i?</text></g><path d="M440.4140625,63.9375L440.4140625,71.92708333333333C440.4140625,79.91666666666666,440.4140625,95.89583333333333,440.4140625,111.04166666666666C440.4140625,126.1875,440.4140625,140.5,440.4140625,147.65625L440.4140625,154.8125" id="edge5" class="relation" marker-end="url(#compositionEnd)"></path><path d="M473.25,59.10773384724341L491.67838541666663,67.90227820603617C510.1067708333333,76.69682256482893,546.9635416666666,94.28591128241446,565.3919270833333,107.2471223078739C583.8203125,120.20833333333333,583.8203125,128.54166666666666,583.8203124999999,132.70833333333331L583.8203125,136.875" id="edge6" class="relation" marker-end="url(#extensionEnd)"></path><path d="M583.8203125,304.75L583.8203124999999,308.91666666666663C583.8203125,313.0833333333333,583.8203125,321.41666666666663,574.3424479166666,331.4344127623489C564.8645833333333,341.4521588580312,545.9088541666666,353.15431771606245,536.4309895833334,359.005397145078L526.953125,364.8564765740937" id="edge7" class="relation" marker-start="url(#dependencyStart)" marker-end="url(#dependencyEnd)"></path><g class="classLabel"><rect class="box" x="519.78125" y="330.796875" width="71.203125" height="22"></rect><text class="label" x="555.38671875" y="347.30323828704684" fill="red" text-anchor="middle">Cool label</text></g></svg>